<?xml version="1.0" encoding="utf-8"?>
<!-- Generator: Adobe Illustrator 26.0.3, SVG Export Plug-In . SVG Version: 6.00 Build 0)  -->
<svg version="1.1" id="Layer_1" xmlns="http://www.w3.org/2000/svg" xmlns:xlink="http://www.w3.org/1999/xlink" x="0px" y="0px"
	 viewBox="0 0 644 181" style="enable-background:new 0 0 644 181;" xml:space="preserve">
<style type="text/css">
	.st0{fill:#4971B7;}
	.st1{fill:#70AD45;}
	.st2{fill:#5C9BD3;}
</style>
<g>
	<path class="st0" d="M67.97,82.34c0,3.44-0.66,6.51-1.99,9.2c-1.33,2.69-3.16,4.97-5.51,6.84c-2.35,1.87-5.12,3.28-8.3,4.23
		s-6.61,1.42-10.29,1.42c-2.57,0-4.95-0.21-7.14-0.62c-2.19-0.42-4.15-0.93-5.87-1.53s-3.16-1.23-4.33-1.87
		c-1.17-0.64-1.98-1.19-2.43-1.65c-0.46-0.45-0.79-1.03-1.01-1.73c-0.22-0.7-0.33-1.64-0.33-2.81c0-0.83,0.04-1.52,0.12-2.07
		c0.08-0.55,0.2-0.99,0.36-1.33s0.36-0.58,0.59-0.71c0.24-0.13,0.51-0.2,0.83-0.2c0.55,0,1.33,0.32,2.34,0.96
		c1.01,0.64,2.3,1.34,3.88,2.1c1.58,0.76,3.49,1.47,5.72,2.13c2.23,0.66,4.81,0.99,7.74,0.99c2.21,0,4.24-0.28,6.08-0.85
		c1.84-0.57,3.42-1.37,4.74-2.41c1.32-1.04,2.34-2.32,3.05-3.83c0.71-1.51,1.07-3.24,1.07-5.17c0-2.08-0.49-3.86-1.48-5.34
		c-0.99-1.48-2.29-2.77-3.91-3.89c-1.62-1.12-3.47-2.14-5.54-3.07c-2.07-0.93-4.2-1.87-6.37-2.84c-2.17-0.96-4.29-2.03-6.34-3.21
		c-2.06-1.17-3.89-2.55-5.51-4.14c-1.62-1.59-2.93-3.45-3.94-5.59c-1.01-2.14-1.51-4.7-1.51-7.69c0-3.07,0.58-5.8,1.75-8.2
		c1.17-2.4,2.79-4.42,4.86-6.05c2.08-1.63,4.54-2.87,7.41-3.72c2.87-0.85,5.96-1.28,9.28-1.28c1.7,0,3.41,0.14,5.13,0.43
		c1.72,0.28,3.34,0.66,4.86,1.13c1.52,0.47,2.88,1,4.06,1.59s1.97,1.06,2.34,1.42c0.38,0.36,0.62,0.64,0.74,0.85
		c0.12,0.21,0.22,0.47,0.3,0.79c0.08,0.32,0.14,0.71,0.18,1.16c0.04,0.45,0.06,1.04,0.06,1.76c0,0.68-0.03,1.29-0.09,1.82
		c-0.06,0.53-0.15,0.97-0.27,1.33c-0.12,0.36-0.29,0.62-0.5,0.79c-0.22,0.17-0.46,0.25-0.74,0.25c-0.44,0-1.12-0.26-2.04-0.79
		c-0.93-0.53-2.07-1.13-3.41-1.79c-1.34-0.66-2.94-1.27-4.77-1.82c-1.84-0.55-3.9-0.82-6.2-0.82c-2.13,0-3.99,0.28-5.57,0.82
		c-1.58,0.55-2.89,1.28-3.91,2.19c-1.03,0.91-1.8,1.99-2.31,3.24c-0.51,1.25-0.77,2.57-0.77,3.97c0,2.04,0.49,3.8,1.48,5.28
		c0.99,1.48,2.3,2.78,3.94,3.92c1.64,1.14,3.51,2.18,5.6,3.12c2.09,0.95,4.23,1.9,6.4,2.87s4.31,2.03,6.4,3.18
		c2.09,1.16,3.96,2.52,5.6,4.09c1.64,1.57,2.96,3.43,3.97,5.56C67.47,76.9,67.97,79.43,67.97,82.34z"/>
	<path class="st0" d="M123.98,101.53c0,0.3-0.08,0.56-0.24,0.77c-0.16,0.21-0.42,0.39-0.77,0.54c-0.36,0.15-0.85,0.26-1.48,0.34
		c-0.63,0.08-1.42,0.11-2.37,0.11c-0.99,0-1.8-0.04-2.43-0.11c-0.63-0.08-1.13-0.19-1.48-0.34c-0.36-0.15-0.61-0.33-0.77-0.54
		c-0.16-0.21-0.24-0.46-0.24-0.77V71.61c0-2.91-0.24-5.26-0.71-7.04c-0.47-1.78-1.17-3.31-2.08-4.6c-0.91-1.29-2.09-2.27-3.53-2.95
		c-1.44-0.68-3.11-1.02-5.01-1.02c-2.45,0-4.9,0.83-7.35,2.5c-2.45,1.67-5.02,4.11-7.71,7.32v35.71c0,0.3-0.08,0.56-0.24,0.77
		c-0.16,0.21-0.42,0.39-0.77,0.54c-0.36,0.15-0.85,0.26-1.48,0.34c-0.63,0.08-1.44,0.11-2.43,0.11c-0.95,0-1.74-0.04-2.37-0.11
		c-0.63-0.08-1.14-0.19-1.51-0.34c-0.38-0.15-0.63-0.33-0.77-0.54c-0.14-0.21-0.21-0.46-0.21-0.77V25.69c0-0.3,0.07-0.57,0.21-0.79
		c0.14-0.23,0.39-0.42,0.77-0.57c0.38-0.15,0.88-0.26,1.51-0.34c0.63-0.08,1.42-0.11,2.37-0.11c0.99,0,1.8,0.04,2.43,0.11
		c0.63,0.08,1.13,0.19,1.48,0.34c0.36,0.15,0.61,0.34,0.77,0.57c0.16,0.23,0.24,0.49,0.24,0.79v30.6c2.81-2.84,5.63-4.95,8.48-6.33
		c2.85-1.38,5.71-2.07,8.6-2.07c3.56,0,6.55,0.58,8.98,1.73c2.43,1.15,4.4,2.7,5.9,4.63c1.5,1.93,2.58,4.19,3.23,6.78
		c0.65,2.59,0.98,5.72,0.98,9.4V101.53z"/>
	<path class="st0" d="M178.63,101.59c0,0.45-0.16,0.79-0.47,1.02c-0.32,0.23-0.75,0.4-1.3,0.51c-0.55,0.11-1.36,0.17-2.43,0.17
		c-1.03,0-1.85-0.06-2.46-0.17c-0.61-0.11-1.06-0.28-1.33-0.51c-0.28-0.23-0.42-0.57-0.42-1.02v-5.11c-2.33,2.38-4.93,4.24-7.8,5.56
		c-2.87,1.32-5.9,1.99-9.1,1.99c-2.81,0-5.35-0.35-7.62-1.05c-2.27-0.7-4.21-1.71-5.81-3.04c-1.6-1.32-2.85-2.95-3.74-4.88
		c-0.89-1.93-1.33-4.12-1.33-6.58c0-2.88,0.61-5.37,1.84-7.49c1.22-2.12,2.98-3.88,5.28-5.28c2.29-1.4,5.1-2.45,8.42-3.15
		c3.32-0.7,7.05-1.05,11.21-1.05h7.35v-3.97c0-1.97-0.22-3.71-0.65-5.22c-0.44-1.51-1.14-2.77-2.1-3.78c-0.97-1-2.22-1.76-3.77-2.27
		c-1.54-0.51-3.44-0.77-5.69-0.77c-2.41,0-4.58,0.28-6.49,0.82c-1.92,0.55-3.6,1.16-5.04,1.82c-1.44,0.66-2.65,1.27-3.62,1.82
		c-0.97,0.55-1.69,0.82-2.16,0.82c-0.32,0-0.59-0.08-0.83-0.23c-0.24-0.15-0.45-0.38-0.62-0.68c-0.18-0.3-0.31-0.69-0.39-1.16
		s-0.12-0.99-0.12-1.56c0-0.95,0.07-1.69,0.21-2.24c0.14-0.55,0.47-1.07,1.01-1.56c0.53-0.49,1.45-1.07,2.76-1.73
		c1.3-0.66,2.81-1.27,4.51-1.82c1.7-0.55,3.56-1,5.57-1.36c2.02-0.36,4.05-0.54,6.11-0.54c3.83,0,7.09,0.42,9.78,1.25
		c2.69,0.83,4.86,2.05,6.52,3.66c1.66,1.61,2.87,3.6,3.62,5.99c0.75,2.38,1.13,5.17,1.13,8.34V101.59z M168.9,78.26h-8.36
		c-2.69,0-5.02,0.22-7,0.65c-1.98,0.44-3.62,1.08-4.92,1.93s-2.26,1.87-2.88,3.07c-0.61,1.19-0.92,2.56-0.92,4.12
		c0,2.65,0.88,4.76,2.64,6.33c1.76,1.57,4.22,2.36,7.38,2.36c2.57,0,4.95-0.62,7.14-1.87c2.19-1.25,4.5-3.16,6.91-5.73V78.26z"/>
	<path class="st0" d="M242.28,75.3c0,4.43-0.5,8.41-1.51,11.95s-2.49,6.56-4.45,9.05c-1.96,2.5-4.36,4.41-7.2,5.73
		c-2.85,1.32-6.11,1.99-9.78,1.99c-1.7,0-3.27-0.16-4.71-0.48c-1.44-0.32-2.86-0.84-4.24-1.56c-1.38-0.72-2.77-1.63-4.15-2.73
		c-1.38-1.1-2.85-2.42-4.39-3.97v6.25c0,0.3-0.08,0.57-0.24,0.79c-0.16,0.23-0.42,0.41-0.77,0.54c-0.36,0.13-0.8,0.24-1.33,0.31
		c-0.53,0.08-1.22,0.11-2.04,0.11c-0.79,0-1.46-0.04-2.02-0.11c-0.55-0.08-1.01-0.18-1.36-0.31c-0.36-0.13-0.59-0.31-0.71-0.54
		c-0.12-0.23-0.18-0.49-0.18-0.79V25.69c0-0.3,0.07-0.57,0.21-0.79c0.14-0.23,0.39-0.42,0.77-0.57c0.38-0.15,0.88-0.26,1.51-0.34
		c0.63-0.08,1.42-0.11,2.37-0.11c0.99,0,1.8,0.04,2.43,0.11c0.63,0.08,1.13,0.19,1.48,0.34c0.36,0.15,0.61,0.34,0.77,0.57
		c0.16,0.23,0.24,0.49,0.24,0.79v30.6c1.58-1.55,3.11-2.86,4.59-3.92s2.93-1.92,4.36-2.58c1.42-0.66,2.85-1.14,4.27-1.45
		s2.92-0.45,4.51-0.45c3.87,0,7.18,0.74,9.93,2.21c2.75,1.48,4.98,3.45,6.7,5.93c1.72,2.48,2.97,5.38,3.77,8.71
		C241.89,68.07,242.28,71.59,242.28,75.3z M232.15,76.38c0-2.61-0.21-5.15-0.63-7.61c-0.42-2.46-1.14-4.64-2.18-6.53
		c-1.03-1.89-2.41-3.42-4.12-4.57c-1.71-1.15-3.84-1.73-6.38-1.73c-1.27,0-2.53,0.17-3.76,0.51c-1.23,0.34-2.49,0.91-3.76,1.7
		c-1.27,0.79-2.6,1.82-3.97,3.07c-1.37,1.25-2.83,2.82-4.38,4.71v20.38c2.7,3.14,5.29,5.53,7.75,7.18c2.46,1.65,5.03,2.47,7.7,2.47
		c2.47,0,4.57-0.57,6.32-1.7s3.17-2.64,4.26-4.51c1.09-1.87,1.89-3.97,2.39-6.3S232.15,78.77,232.15,76.38z"/>
	<path class="st0" d="M286.49,87.62c0,2.61-0.5,4.94-1.51,6.98c-1.01,2.04-2.44,3.77-4.3,5.17c-1.86,1.4-4.07,2.46-6.64,3.18
		s-5.4,1.08-8.48,1.08c-1.9,0-3.71-0.14-5.42-0.42c-1.72-0.28-3.26-0.64-4.62-1.08c-1.36-0.43-2.52-0.89-3.47-1.36
		c-0.95-0.47-1.64-0.9-2.08-1.28c-0.44-0.38-0.75-0.91-0.95-1.59c-0.2-0.68-0.3-1.61-0.3-2.78c0-0.72,0.04-1.32,0.12-1.82
		s0.18-0.89,0.3-1.19c0.12-0.3,0.29-0.52,0.5-0.65c0.22-0.13,0.46-0.2,0.74-0.2c0.43,0,1.08,0.25,1.93,0.77
		c0.85,0.51,1.9,1.07,3.14,1.67s2.72,1.16,4.42,1.67c1.7,0.51,3.66,0.77,5.87,0.77c1.66,0,3.16-0.17,4.51-0.51
		c1.34-0.34,2.51-0.84,3.5-1.5c0.99-0.66,1.75-1.5,2.28-2.53c0.53-1.02,0.8-2.23,0.8-3.63c0-1.44-0.39-2.65-1.16-3.63
		c-0.77-0.98-1.79-1.85-3.05-2.61c-1.27-0.76-2.69-1.43-4.27-2.02c-1.58-0.59-3.21-1.2-4.89-1.84c-1.68-0.64-3.32-1.37-4.92-2.19
		c-1.6-0.81-3.03-1.81-4.3-2.98c-1.27-1.17-2.28-2.57-3.05-4.2c-0.77-1.63-1.16-3.58-1.16-5.85c0-2.01,0.41-3.93,1.22-5.76
		c0.81-1.83,2.03-3.44,3.65-4.83c1.62-1.38,3.65-2.49,6.08-3.32c2.43-0.83,5.27-1.25,8.51-1.25c1.42,0,2.85,0.11,4.27,0.34
		c1.42,0.23,2.71,0.51,3.85,0.85c1.15,0.34,2.12,0.71,2.94,1.11c0.81,0.4,1.42,0.75,1.84,1.05c0.42,0.3,0.69,0.57,0.83,0.79
		c0.14,0.23,0.24,0.48,0.3,0.77s0.12,0.63,0.18,1.05c0.06,0.42,0.09,0.93,0.09,1.53c0,0.64-0.03,1.2-0.09,1.67
		c-0.06,0.47-0.16,0.86-0.3,1.16c-0.14,0.3-0.31,0.52-0.5,0.65c-0.2,0.13-0.42,0.2-0.65,0.2c-0.36,0-0.87-0.21-1.54-0.62
		c-0.67-0.42-1.54-0.86-2.61-1.33c-1.07-0.47-2.32-0.92-3.76-1.33c-1.44-0.42-3.09-0.62-4.95-0.62c-1.66,0-3.12,0.18-4.39,0.54
		c-1.27,0.36-2.3,0.87-3.11,1.53c-0.81,0.66-1.42,1.45-1.84,2.36s-0.62,1.89-0.62,2.95c0,1.48,0.39,2.72,1.19,3.72
		c0.79,1,1.82,1.88,3.08,2.64c1.26,0.76,2.71,1.44,4.33,2.04c1.62,0.61,3.27,1.23,4.95,1.87c1.68,0.64,3.34,1.36,4.98,2.16
		c1.64,0.79,3.09,1.76,4.36,2.9c1.26,1.14,2.28,2.5,3.05,4.09C286.11,83.53,286.49,85.43,286.49,87.62z"/>
	<path class="st0" d="M323.47,97.78c0,1.1-0.08,1.97-0.24,2.61c-0.16,0.64-0.4,1.12-0.71,1.42c-0.32,0.3-0.79,0.59-1.42,0.85
		c-0.63,0.27-1.35,0.48-2.16,0.65c-0.81,0.17-1.67,0.31-2.58,0.43s-1.82,0.17-2.73,0.17c-2.77,0-5.14-0.35-7.12-1.05
		c-1.98-0.7-3.6-1.76-4.86-3.18c-1.26-1.42-2.18-3.22-2.76-5.39c-0.57-2.18-0.86-4.74-0.86-7.69V56.74h-7.47
		c-0.59,0-1.07-0.3-1.42-0.91c-0.36-0.6-0.53-1.59-0.53-2.95c0-0.72,0.05-1.32,0.15-1.82c0.1-0.49,0.23-0.9,0.39-1.22
		c0.16-0.32,0.37-0.55,0.62-0.68s0.54-0.2,0.86-0.2h7.41V36.81c0-0.26,0.07-0.51,0.21-0.74c0.14-0.23,0.4-0.43,0.77-0.6
		c0.38-0.17,0.88-0.29,1.51-0.37c0.63-0.08,1.42-0.11,2.37-0.11c0.99,0,1.8,0.04,2.43,0.11c0.63,0.08,1.13,0.2,1.48,0.37
		c0.36,0.17,0.61,0.37,0.77,0.6c0.16,0.23,0.24,0.47,0.24,0.74v12.15h13.7c0.32,0,0.59,0.07,0.83,0.2c0.24,0.13,0.45,0.36,0.62,0.68
		c0.18,0.32,0.31,0.73,0.39,1.22c0.08,0.49,0.12,1.1,0.12,1.82c0,1.36-0.18,2.35-0.53,2.95c-0.36,0.61-0.83,0.91-1.42,0.91h-13.7
		v28.5c0,3.52,0.54,6.18,1.63,7.98c1.09,1.8,3.03,2.7,5.84,2.7c0.91,0,1.72-0.08,2.43-0.26c0.71-0.17,1.34-0.35,1.9-0.54
		c0.55-0.19,1.03-0.37,1.42-0.54c0.39-0.17,0.75-0.26,1.07-0.26c0.2,0,0.38,0.05,0.56,0.14c0.18,0.1,0.32,0.28,0.42,0.54
		s0.19,0.62,0.27,1.08C323.43,96.53,323.47,97.1,323.47,97.78z"/>
</g>
<g>
	<path class="st0" d="M431.19,93.75c0,0.64-0.02,1.2-0.06,1.67c-0.04,0.47-0.1,0.87-0.2,1.19c-0.09,0.32-0.21,0.61-0.34,0.85
		c-0.13,0.25-0.43,0.61-0.9,1.08c-0.47,0.47-1.27,1.06-2.4,1.76c-1.13,0.7-2.4,1.33-3.81,1.87c-1.41,0.55-2.94,0.99-4.6,1.33
		c-1.66,0.34-3.37,0.51-5.13,0.51c-3.65,0-6.88-0.61-9.7-1.82s-5.18-2.98-7.08-5.31c-1.9-2.33-3.35-5.18-4.34-8.57
		c-1-3.39-1.5-7.29-1.5-11.72c0-5.03,0.61-9.36,1.83-12.97c1.22-3.61,2.9-6.58,5.02-8.88c2.12-2.31,4.62-4.02,7.5-5.14
		s5.99-1.67,9.33-1.67c1.62,0,3.19,0.15,4.71,0.45c1.52,0.3,2.92,0.7,4.2,1.19c1.28,0.49,2.42,1.06,3.41,1.7
		c1,0.64,1.72,1.19,2.17,1.65s0.76,0.81,0.93,1.08s0.31,0.58,0.42,0.94c0.11,0.36,0.19,0.77,0.23,1.22c0.04,0.45,0.06,1.02,0.06,1.7
		c0,1.48-0.17,2.51-0.51,3.09c-0.34,0.59-0.75,0.88-1.24,0.88c-0.56,0-1.21-0.31-1.95-0.94c-0.73-0.62-1.66-1.31-2.79-2.07
		c-1.13-0.76-2.49-1.45-4.09-2.07c-1.6-0.62-3.49-0.94-5.67-0.94c-4.47,0-7.91,1.73-10.29,5.19s-3.58,8.49-3.58,15.07
		c0,3.29,0.31,6.18,0.93,8.66c0.62,2.48,1.53,4.55,2.74,6.22c1.2,1.67,2.68,2.91,4.43,3.72c1.75,0.81,3.75,1.22,6.01,1.22
		c2.14,0,4.02-0.34,5.64-1.02c1.62-0.68,3.02-1.43,4.2-2.24c1.18-0.81,2.18-1.55,2.99-2.21c0.81-0.66,1.44-0.99,1.89-0.99
		c0.26,0,0.49,0.08,0.68,0.23c0.19,0.15,0.35,0.41,0.48,0.77c0.13,0.36,0.23,0.81,0.28,1.36C431.16,92.34,431.19,93,431.19,93.75z"
		/>
</g>
<g>
	<path class="st0" d="M533.55,98.69c0,0.76-0.04,1.39-0.12,1.9c-0.08,0.51-0.21,0.95-0.39,1.31s-0.4,0.62-0.65,0.79
		c-0.26,0.17-0.56,0.26-0.92,0.26h-33.91c-0.91,0-1.77-0.29-2.58-0.88c-0.81-0.59-1.21-1.62-1.21-3.09V30.97
		c0-0.3,0.08-0.57,0.24-0.79c0.16-0.23,0.43-0.41,0.83-0.54c0.39-0.13,0.93-0.25,1.6-0.34c0.67-0.09,1.48-0.14,2.43-0.14
		c0.99,0,1.81,0.05,2.46,0.14s1.17,0.21,1.57,0.34c0.39,0.13,0.67,0.31,0.83,0.54c0.16,0.23,0.24,0.49,0.24,0.79v63.52h27.51
		c0.36,0,0.66,0.09,0.92,0.26s0.47,0.42,0.65,0.74s0.31,0.75,0.39,1.28C533.51,97.29,533.55,97.94,533.55,98.69z"/>
	<path class="st0" d="M565.78,97.78c0,1.1-0.08,1.97-0.24,2.61c-0.16,0.64-0.4,1.12-0.71,1.42c-0.32,0.3-0.79,0.59-1.42,0.85
		c-0.63,0.27-1.35,0.48-2.16,0.65c-0.81,0.17-1.67,0.31-2.58,0.43s-1.82,0.17-2.73,0.17c-2.77,0-5.14-0.35-7.12-1.05
		c-1.98-0.7-3.6-1.76-4.86-3.18c-1.26-1.42-2.18-3.22-2.76-5.39c-0.57-2.18-0.86-4.74-0.86-7.69V56.74h-7.47
		c-0.59,0-1.07-0.3-1.42-0.91c-0.36-0.6-0.53-1.59-0.53-2.95c0-0.72,0.05-1.32,0.15-1.82c0.1-0.49,0.23-0.9,0.39-1.22
		c0.16-0.32,0.37-0.55,0.62-0.68s0.54-0.2,0.86-0.2h7.41V36.81c0-0.26,0.07-0.51,0.21-0.74c0.14-0.23,0.4-0.43,0.77-0.6
		c0.38-0.17,0.88-0.29,1.51-0.37c0.63-0.08,1.42-0.11,2.37-0.11c0.99,0,1.8,0.04,2.43,0.11c0.63,0.08,1.13,0.2,1.48,0.37
		c0.36,0.17,0.61,0.37,0.77,0.6c0.16,0.23,0.24,0.47,0.24,0.74v12.15h13.7c0.32,0,0.59,0.07,0.83,0.2c0.24,0.13,0.45,0.36,0.62,0.68
		c0.18,0.32,0.31,0.73,0.39,1.22c0.08,0.49,0.12,1.1,0.12,1.82c0,1.36-0.18,2.35-0.53,2.95c-0.36,0.61-0.83,0.91-1.42,0.91h-13.7
		v28.5c0,3.52,0.54,6.18,1.63,7.98c1.09,1.8,3.03,2.7,5.84,2.7c0.91,0,1.72-0.08,2.43-0.26c0.71-0.17,1.34-0.35,1.9-0.54
		c0.55-0.19,1.03-0.37,1.42-0.54c0.39-0.17,0.75-0.26,1.07-0.26c0.2,0,0.38,0.05,0.56,0.14c0.18,0.1,0.32,0.28,0.42,0.54
		s0.19,0.62,0.27,1.08C565.74,96.53,565.78,97.1,565.78,97.78z"/>
	<path class="st0" d="M619.66,101.53c0,0.3-0.07,0.57-0.21,0.79c-0.14,0.23-0.38,0.41-0.71,0.54c-0.34,0.13-0.78,0.24-1.33,0.31
		c-0.55,0.08-1.23,0.11-2.02,0.11c-0.83,0-1.52-0.04-2.08-0.11c-0.55-0.08-1.01-0.18-1.36-0.31c-0.36-0.13-0.61-0.31-0.77-0.54
		c-0.16-0.23-0.24-0.49-0.24-0.79v-6.76c-2.81,2.92-5.72,5.19-8.75,6.81c-3.02,1.63-6.33,2.44-9.93,2.44
		c-3.91,0-7.25-0.73-10.02-2.19c-2.77-1.46-5.01-3.42-6.73-5.9s-2.97-5.39-3.76-8.74c-0.79-3.35-1.19-6.88-1.19-10.59
		c0-4.39,0.49-8.35,1.48-11.89s2.45-6.56,4.39-9.05c1.94-2.5,4.34-4.42,7.2-5.76c2.87-1.34,6.17-2.01,9.93-2.01
		c3.12,0,5.98,0.65,8.57,1.96c2.59,1.31,5.15,3.23,7.68,5.76V25.91c0-0.26,0.07-0.52,0.21-0.77c0.14-0.25,0.41-0.43,0.8-0.57
		c0.39-0.13,0.9-0.25,1.51-0.34c0.61-0.09,1.39-0.14,2.34-0.14c0.99,0,1.8,0.05,2.43,0.14c0.63,0.09,1.13,0.21,1.48,0.34
		c0.36,0.13,0.62,0.32,0.8,0.57c0.18,0.25,0.27,0.5,0.27,0.77V101.53z M609.82,65.6c-2.65-3.14-5.21-5.54-7.68-7.18
		c-2.47-1.65-5.05-2.47-7.74-2.47c-2.49,0-4.6,0.57-6.34,1.7c-1.74,1.14-3.15,2.63-4.24,4.49c-1.09,1.85-1.88,3.96-2.37,6.3
		c-0.49,2.35-0.74,4.73-0.74,7.15c0,2.57,0.21,5.09,0.62,7.55c0.42,2.46,1.14,4.65,2.16,6.56c1.03,1.91,2.39,3.44,4.09,4.6
		c1.7,1.16,3.83,1.73,6.4,1.73c1.3,0,2.56-0.17,3.77-0.51c1.21-0.34,2.44-0.91,3.7-1.7c1.26-0.79,2.59-1.83,3.97-3.09
		c1.38-1.27,2.85-2.83,4.39-4.68V65.6z"/>
</g>
<g>
	<path class="st1" d="M356.44,102.95c-1.04,0-2.1-0.08-3.16-0.23c-6.26-0.9-12.14-4.9-17.48-11.89c-5.56-7.27-8.05-14.26-7.4-20.76
		c0.66-6.57,3.63-11.84,9.09-16.13c4.12-3.24,8.66-4.88,13.47-4.88c1.17,0,2.39,0.1,3.61,0.29c6.25,0.98,12.17,5.08,17.6,12.18
		l0.46,0.64l-32.05,25.17l1.2,1.39c4.37,5.06,9,7.98,13.77,8.67c0.9,0.13,1.8,0.2,2.67,0.2l0,0c3.78,0,7.27-1.24,10.38-3.68
		c5.72-4.5,7.52-10.75,5.36-18.61l5.29-3.16c1.59,4.62,1.81,8.99,0.67,13.01c-1.3,4.59-4.25,8.7-8.74,12.23
		C366.49,101.08,361.53,102.95,356.44,102.95z M349.95,53.85c-3.55,0-6.88,1.2-9.88,3.55c-3.6,2.83-5.72,6.57-6.31,11.12
		c-0.59,4.52,0.63,9.06,3.62,13.49l1.03,1.53l26.8-21.05l-1.27-1.4c-3.51-3.85-7.01-6.16-10.41-6.87
		C352.32,53.98,351.11,53.85,349.95,53.85z"/>
</g>
<g>
	<path class="st2" d="M30.85,154.77v-24.41h5.26l6.28,17.28l1.26,3.61c0.31-0.9,0.78-2.2,1.41-3.91l6.34-16.98h4.71v24.41h-3.37
		v-20.41l-7.71,20.41h-3.14l-7.67-20.76v20.76H30.85z"/>
	<path class="st2" d="M60.04,145.94c0-3.05,0.85-5.35,2.54-6.91c1.69-1.55,3.84-2.33,6.43-2.33c2.55,0,4.69,0.78,6.4,2.33
		s2.57,3.79,2.57,6.73c0,3.17-0.84,5.54-2.53,7.09s-3.83,2.33-6.45,2.33c-2.57,0-4.7-0.78-6.41-2.34
		C60.9,151.28,60.04,148.98,60.04,145.94z M63.36,145.93c0,2.29,0.55,3.99,1.65,5.11s2.46,1.67,4.09,1.67
		c1.52,0,2.83-0.56,3.93-1.69c1.09-1.13,1.64-2.83,1.64-5.09c0-2.28-0.55-3.98-1.65-5.09c-1.1-1.12-2.46-1.67-4.09-1.67
		c-1.54,0-2.85,0.56-3.94,1.68C63.91,141.97,63.36,143.66,63.36,145.93z"/>
	<path class="st2" d="M84.79,154.77h-3.01v-24.41h3.26v8.71c0.69-0.8,1.47-1.4,2.34-1.79c0.87-0.39,1.84-0.59,2.92-0.59
		c1.5,0,2.86,0.34,4.08,1.02c1.22,0.68,2.2,1.7,2.94,3.08s1.1,3.05,1.1,5.01c0,3-0.83,5.31-2.49,6.93c-1.66,1.63-3.6,2.44-5.82,2.44
		c-1.12,0-2.12-0.22-3.01-0.66s-1.66-1.09-2.3-1.96V154.77z M84.74,145.8c0,1.83,0.22,3.2,0.66,4.11c0.44,0.91,1.07,1.6,1.88,2.08
		c0.81,0.48,1.71,0.72,2.69,0.72c1.34,0,2.53-0.57,3.56-1.71c1.04-1.14,1.56-2.84,1.56-5.1c0-2.32-0.5-4.02-1.5-5.11
		c-1-1.09-2.23-1.63-3.68-1.63c-1.34,0-2.53,0.57-3.58,1.71C85.27,142,84.74,143.65,84.74,145.8z"/>
	<path class="st2" d="M102.37,133.82v-3.45h3.23v3.45H102.37z M102.37,154.77V137.1h3.23v17.68H102.37z"/>
	<path class="st2" d="M110.46,154.77v-24.41h3.23v24.41H110.46z"/>
	<path class="st2" d="M131.87,149.08l3.34,0.38c-0.56,1.89-1.57,3.31-3.03,4.27s-3.27,1.44-5.42,1.44c-2.71,0-4.91-0.78-6.59-2.34
		c-1.68-1.56-2.52-3.81-2.52-6.75c0-3.05,0.85-5.38,2.54-6.98c1.69-1.6,3.84-2.41,6.43-2.41c2.48,0,4.55,0.79,6.2,2.36
		s2.49,3.86,2.49,6.84l-0.02,0.8H121c0.13,1.99,0.74,3.49,1.83,4.5s2.41,1.51,3.96,1.51C129.22,152.71,130.91,151.5,131.87,149.08z
		 M121.2,144.24h10.69c-0.15-1.53-0.58-2.67-1.3-3.43c-1.04-1.1-2.37-1.65-3.98-1.65c-1.45,0-2.69,0.46-3.72,1.37
		C121.87,141.45,121.3,142.68,121.2,144.24z"/>
</g>
<g>
	<path class="st2" d="M300.36,130.15h7.76c1.66,0,3.12,0.1,4.39,0.3c1.26,0.2,2.32,0.53,3.17,0.99s1.49,1.05,1.92,1.79
		c0.43,0.74,0.64,1.64,0.64,2.72c0,0.65-0.13,1.25-0.38,1.82c-0.25,0.56-0.62,1.06-1.1,1.49c-0.48,0.43-1.07,0.79-1.78,1.07
		c-0.71,0.29-1.51,0.48-2.4,0.57v0.16c0.89,0.12,1.73,0.3,2.52,0.54c0.79,0.23,1.47,0.56,2.05,0.97c0.58,0.41,1.04,0.93,1.38,1.56
		c0.34,0.63,0.51,1.39,0.51,2.29c0,1.04-0.21,1.98-0.63,2.79c-0.42,0.82-1.03,1.51-1.83,2.08c-0.8,0.57-1.77,1-2.91,1.31
		s-2.43,0.45-3.87,0.45h-9.44V130.15z M303.98,139.85h4.75c1.09,0,2-0.08,2.74-0.24s1.34-0.39,1.79-0.7s0.78-0.69,0.98-1.16
		c0.2-0.46,0.3-1,0.3-1.62c0-1.25-0.5-2.15-1.5-2.69c-1-0.54-2.58-0.81-4.73-0.81h-4.34V139.85z M303.98,142.29v8.27h5.18
		c1.14,0,2.1-0.1,2.87-0.31c0.77-0.21,1.39-0.5,1.87-0.88s0.81-0.83,1.02-1.35c0.21-0.53,0.31-1.11,0.31-1.75
		c0-0.58-0.11-1.12-0.32-1.61s-0.56-0.91-1.05-1.26c-0.49-0.35-1.13-0.62-1.94-0.81c-0.8-0.19-1.8-0.29-3-0.29H303.98z"/>
	<path class="st2" d="M320.89,131.19c0-0.63,0.2-1.08,0.59-1.36c0.4-0.28,0.89-0.42,1.47-0.42c0.29,0,0.55,0.03,0.81,0.1
		c0.25,0.07,0.47,0.17,0.66,0.32c0.19,0.15,0.34,0.33,0.45,0.56c0.11,0.22,0.17,0.49,0.17,0.81c0,0.61-0.2,1.06-0.61,1.35
		c-0.41,0.3-0.9,0.45-1.47,0.45c-0.58,0-1.07-0.15-1.47-0.44C321.09,132.26,320.89,131.81,320.89,131.19z M324.71,153.03h-3.54
		v-17.19h3.54V153.03z"/>
	<path class="st2" d="M344.47,135.84v1.77l-3.83,0.42c0.36,0.37,0.67,0.83,0.92,1.4c0.25,0.57,0.37,1.21,0.37,1.93
		c0,0.79-0.15,1.53-0.46,2.2c-0.3,0.67-0.77,1.25-1.38,1.75c-0.62,0.49-1.38,0.87-2.29,1.15c-0.91,0.28-1.97,0.42-3.17,0.42
		c-0.29,0-0.57,0-0.86-0.01c-0.29,0-0.52-0.02-0.7-0.05c-0.22,0.1-0.44,0.22-0.65,0.35c-0.21,0.13-0.41,0.28-0.58,0.45
		c-0.18,0.17-0.32,0.35-0.43,0.56s-0.17,0.44-0.17,0.69c0,0.28,0.08,0.51,0.23,0.68c0.16,0.17,0.37,0.31,0.63,0.4
		c0.27,0.09,0.58,0.16,0.94,0.19s0.75,0.05,1.15,0.05h3.42c1.21,0,2.22,0.12,3.05,0.37s1.51,0.58,2.03,0.99
		c0.53,0.42,0.91,0.91,1.14,1.48s0.35,1.17,0.35,1.81c0,0.92-0.21,1.74-0.63,2.47s-1.07,1.35-1.94,1.86
		c-0.87,0.51-1.97,0.89-3.3,1.17c-1.33,0.27-2.9,0.41-4.7,0.41c-1.39,0-2.6-0.11-3.64-0.33c-1.04-0.22-1.9-0.54-2.59-0.96
		c-0.69-0.42-1.2-0.92-1.55-1.51c-0.34-0.59-0.52-1.25-0.52-2c0-0.63,0.13-1.18,0.38-1.65c0.25-0.47,0.59-0.88,1.02-1.23
		s0.92-0.63,1.49-0.85c0.56-0.22,1.15-0.39,1.76-0.5c-0.54-0.2-0.99-0.51-1.34-0.94c-0.35-0.43-0.53-0.92-0.53-1.47
		c0-0.64,0.21-1.19,0.62-1.65c0.42-0.46,1.07-0.92,1.97-1.35c-0.56-0.19-1.07-0.45-1.53-0.78c-0.46-0.33-0.85-0.7-1.17-1.13
		c-0.32-0.42-0.56-0.88-0.74-1.38s-0.26-1.02-0.26-1.55c0-0.93,0.16-1.76,0.49-2.49s0.8-1.35,1.44-1.86
		c0.63-0.51,1.43-0.9,2.37-1.17c0.95-0.27,2.05-0.41,3.31-0.41c0.48,0,0.98,0.03,1.49,0.09c0.51,0.06,0.94,0.13,1.29,0.23H344.47z
		 M328.69,155.85c0,0.39,0.08,0.75,0.25,1.08c0.17,0.33,0.44,0.62,0.83,0.86s0.89,0.43,1.52,0.57c0.63,0.14,1.41,0.21,2.34,0.21
		c2.41,0,4.22-0.3,5.42-0.9c1.2-0.6,1.8-1.46,1.8-2.59c0-0.48-0.08-0.87-0.23-1.17c-0.16-0.3-0.41-0.54-0.77-0.71
		c-0.36-0.17-0.83-0.29-1.41-0.35c-0.58-0.06-1.3-0.09-2.14-0.09h-3.42c-0.45,0-0.93,0.04-1.42,0.13c-0.49,0.08-0.94,0.24-1.35,0.47
		c-0.41,0.23-0.75,0.54-1.01,0.95C328.82,154.69,328.69,155.21,328.69,155.85z M330.48,141.37c0,1.2,0.35,2.09,1.05,2.68
		c0.7,0.58,1.69,0.88,2.98,0.88c1.3,0,2.28-0.29,2.95-0.87s1-1.49,1-2.73c0-1.28-0.34-2.23-1.02-2.83
		c-0.68-0.61-1.67-0.91-2.97-0.91c-1.29,0-2.27,0.31-2.96,0.94S330.48,140.1,330.48,141.37z"/>
	<path class="st2" d="M377.64,141.37c0,1.93-0.31,3.62-0.93,5.08c-0.62,1.46-1.52,2.67-2.7,3.65c-1.18,0.98-2.63,1.71-4.35,2.2
		c-1.72,0.49-3.67,0.74-5.85,0.74h-7.12v-22.89h7.92c1.99,0,3.78,0.24,5.39,0.72c1.61,0.48,2.98,1.19,4.11,2.14
		c1.13,0.95,2,2.12,2.62,3.51S377.64,139.53,377.64,141.37z M373.81,141.46c0-1.52-0.21-2.84-0.64-3.95
		c-0.43-1.11-1.05-2.03-1.87-2.75c-0.82-0.72-1.82-1.25-3.02-1.6s-2.55-0.52-4.07-0.52h-3.91v17.89h3.15c3.42,0,6.01-0.76,7.74-2.29
		S373.81,144.46,373.81,141.46z"/>
	<path class="st2" d="M392.04,153.03l-0.72-2.38h-0.16c-0.43,0.47-0.86,0.88-1.28,1.21c-0.43,0.34-0.9,0.62-1.4,0.84
		c-0.51,0.22-1.07,0.38-1.69,0.49c-0.62,0.1-1.34,0.16-2.16,0.16c-0.9,0-1.72-0.1-2.47-0.31c-0.75-0.2-1.4-0.52-1.96-0.94
		c-0.55-0.42-0.98-0.96-1.29-1.6s-0.47-1.4-0.47-2.28c0-1.71,0.75-3.03,2.25-3.95c1.5-0.92,3.78-1.42,6.84-1.5l3.58-0.11v-1.08
		c0-0.7-0.09-1.28-0.28-1.75c-0.19-0.47-0.46-0.85-0.82-1.13c-0.36-0.29-0.8-0.49-1.32-0.62s-1.12-0.19-1.8-0.19
		c-1.08,0-2.08,0.12-3.01,0.38c-0.93,0.25-1.82,0.55-2.67,0.91l-1.25-2.14c0.96-0.42,2.03-0.77,3.21-1.06s2.42-0.44,3.72-0.44
		c1.32,0,2.47,0.11,3.43,0.32c0.97,0.21,1.76,0.55,2.39,1.02c0.63,0.46,1.1,1.06,1.41,1.78c0.31,0.72,0.47,1.59,0.47,2.61v11.77
		H392.04z M385.54,151.04c0.79,0,1.52-0.1,2.2-0.3c0.67-0.2,1.26-0.5,1.75-0.9s0.88-0.91,1.16-1.52c0.28-0.61,0.42-1.33,0.42-2.15
		v-1.55l-2.78,0.11c-1.17,0.04-2.15,0.15-2.94,0.31c-0.79,0.17-1.42,0.4-1.9,0.7c-0.47,0.3-0.81,0.66-1.02,1.08
		c-0.21,0.42-0.31,0.9-0.31,1.43c0,0.96,0.31,1.66,0.94,2.11C383.69,150.82,384.51,151.04,385.54,151.04z"/>
	<path class="st2" d="M404.14,151.01c0.23,0,0.5-0.01,0.79-0.03c0.29-0.02,0.57-0.05,0.85-0.08s0.52-0.07,0.75-0.11
		c0.23-0.04,0.4-0.08,0.52-0.11v2.16c-0.17,0.06-0.38,0.12-0.64,0.19s-0.54,0.12-0.86,0.16s-0.64,0.08-0.97,0.11
		c-0.34,0.03-0.67,0.04-0.99,0.04c-0.8,0-1.55-0.08-2.24-0.25s-1.28-0.45-1.78-0.86c-0.5-0.41-0.89-0.96-1.18-1.65
		c-0.29-0.69-0.43-1.57-0.43-2.62v-9.97h-3.02v-1.27l3.02-1.22l1.52-3.6h2.04v3.95h5.37v2.14h-5.37v9.97c0,1.01,0.2,1.77,0.61,2.29
		C402.53,150.76,403.2,151.01,404.14,151.01z"/>
	<path class="st2" d="M419.76,153.03l-0.72-2.38h-0.16c-0.43,0.47-0.86,0.88-1.28,1.21c-0.43,0.34-0.9,0.62-1.4,0.84
		c-0.51,0.22-1.07,0.38-1.69,0.49c-0.62,0.1-1.34,0.16-2.16,0.16c-0.9,0-1.72-0.1-2.47-0.31c-0.75-0.2-1.4-0.52-1.96-0.94
		c-0.55-0.42-0.98-0.96-1.29-1.6s-0.47-1.4-0.47-2.28c0-1.71,0.75-3.03,2.25-3.95c1.5-0.92,3.78-1.42,6.84-1.5l3.58-0.11v-1.08
		c0-0.7-0.09-1.28-0.28-1.75c-0.19-0.47-0.46-0.85-0.82-1.13c-0.36-0.29-0.8-0.49-1.32-0.62s-1.12-0.19-1.8-0.19
		c-1.08,0-2.08,0.12-3.01,0.38c-0.93,0.25-1.82,0.55-2.67,0.91l-1.25-2.14c0.96-0.42,2.03-0.77,3.21-1.06s2.42-0.44,3.72-0.44
		c1.32,0,2.47,0.11,3.43,0.32c0.97,0.21,1.76,0.55,2.39,1.02c0.63,0.46,1.1,1.06,1.41,1.78c0.31,0.72,0.47,1.59,0.47,2.61v11.77
		H419.76z M413.26,151.04c0.79,0,1.52-0.1,2.2-0.3c0.67-0.2,1.26-0.5,1.75-0.9s0.88-0.91,1.16-1.52c0.28-0.61,0.42-1.33,0.42-2.15
		v-1.55l-2.78,0.11c-1.17,0.04-2.15,0.15-2.94,0.31c-0.79,0.17-1.42,0.4-1.9,0.7c-0.47,0.3-0.81,0.66-1.02,1.08
		c-0.21,0.42-0.31,0.9-0.31,1.43c0,0.96,0.31,1.66,0.94,2.11C411.41,150.82,412.24,151.04,413.26,151.04z"/>
</g>
<g>
	<path class="st2" d="M185.92,132.51c-1.4,0-2.67,0.22-3.81,0.65c-1.14,0.43-2.11,1.05-2.92,1.86c-0.81,0.81-1.43,1.79-1.87,2.95
		c-0.44,1.16-0.66,2.47-0.66,3.92c0,1.5,0.19,2.83,0.58,3.99s0.97,2.14,1.74,2.94c0.77,0.8,1.73,1.4,2.89,1.82
		c1.15,0.41,2.5,0.62,4.04,0.62c1.17,0,2.27-0.09,3.32-0.28c1.05-0.19,2.08-0.4,3.1-0.65v2.58c-0.51,0.16-1.02,0.3-1.53,0.42
		c-0.51,0.12-1.04,0.22-1.6,0.29s-1.15,0.13-1.79,0.17s-1.34,0.06-2.11,0.06c-2.15,0-4-0.29-5.58-0.86
		c-1.57-0.57-2.87-1.39-3.9-2.44c-1.03-1.05-1.79-2.32-2.29-3.79c-0.5-1.48-0.75-3.11-0.75-4.91c0-1.76,0.28-3.38,0.85-4.85
		s1.41-2.73,2.51-3.78c1.11-1.05,2.48-1.87,4.11-2.46s3.51-0.88,5.63-0.88c1.41,0,2.76,0.12,4.04,0.35
		c1.28,0.23,2.44,0.57,3.48,1.02l-1.53,2.49c-0.82-0.34-1.72-0.63-2.69-0.88S187.15,132.51,185.92,132.51z"/>
	<path class="st2" d="M198.57,153.54H195v-24.81h3.57V153.54z"/>
	<path class="st2" d="M219.96,144.75c0,1.46-0.22,2.75-0.66,3.88s-1.07,2.08-1.88,2.85s-1.81,1.36-2.97,1.76
		c-1.17,0.4-2.47,0.61-3.93,0.61c-1.35,0-2.59-0.2-3.73-0.61c-1.14-0.4-2.12-0.99-2.95-1.76c-0.83-0.77-1.48-1.72-1.94-2.85
		s-0.7-2.43-0.7-3.88c0-1.45,0.22-2.73,0.66-3.85c0.44-1.12,1.06-2.07,1.88-2.84s1.8-1.36,2.97-1.75c1.17-0.4,2.48-0.6,3.94-0.6
		c1.35,0,2.59,0.2,3.73,0.6s2.12,0.98,2.96,1.75c0.83,0.77,1.48,1.72,1.94,2.84C219.72,142.02,219.96,143.31,219.96,144.75z
		 M204.88,144.75c0,2.22,0.45,3.89,1.34,5.01s2.35,1.68,4.37,1.68s3.46-0.56,4.35-1.68s1.33-2.79,1.33-5.01s-0.45-3.88-1.34-4.98
		c-0.9-1.1-2.35-1.65-4.37-1.65s-3.46,0.55-4.35,1.65C205.32,140.87,204.88,142.53,204.88,144.75z"/>
	<path class="st2" d="M236.53,153.54l-0.53-2.34h-0.2c-0.33,0.46-0.72,0.85-1.17,1.19c-0.45,0.33-0.95,0.61-1.48,0.83
		c-0.54,0.22-1.11,0.38-1.71,0.49c-0.6,0.11-1.22,0.16-1.85,0.16c-1.19,0-2.24-0.12-3.14-0.37c-0.9-0.24-1.66-0.63-2.26-1.15
		c-0.6-0.52-1.06-1.19-1.37-1.99s-0.46-1.77-0.46-2.89v-11.43h3.57v11.27c0,1.38,0.35,2.42,1.04,3.11c0.69,0.69,1.77,1.04,3.22,1.04
		c1.06,0,1.95-0.14,2.67-0.41s1.3-0.68,1.74-1.22c0.44-0.54,0.75-1.2,0.94-1.98c0.19-0.79,0.29-1.69,0.29-2.71v-9.09h3.57v17.5
		H236.53z"/>
	<path class="st2" d="M256.55,151.19h-0.16c-0.29,0.36-0.62,0.7-1.01,1.03c-0.39,0.32-0.83,0.61-1.33,0.85
		c-0.5,0.24-1.07,0.44-1.7,0.57c-0.63,0.14-1.33,0.21-2.12,0.21c-1.22,0-2.33-0.19-3.34-0.57s-1.87-0.95-2.59-1.71
		c-0.72-0.76-1.28-1.7-1.67-2.83c-0.39-1.13-0.59-2.43-0.59-3.92c0-1.5,0.2-2.81,0.59-3.95s0.95-2.08,1.67-2.85
		c0.72-0.77,1.58-1.34,2.59-1.73c1.01-0.39,2.12-0.58,3.34-0.58c0.77,0,1.47,0.07,2.1,0.21s1.19,0.32,1.7,0.56
		c0.5,0.23,0.95,0.5,1.34,0.81s0.73,0.63,1.02,0.97h0.24c-0.04-0.36-0.08-0.71-0.12-1.04c-0.03-0.28-0.05-0.56-0.08-0.85
		c-0.03-0.29-0.04-0.52-0.04-0.69v-6.95h3.57v24.81h-2.89L256.55,151.19z M250.91,151.45c1,0,1.84-0.12,2.52-0.37
		c0.69-0.24,1.24-0.62,1.67-1.12c0.43-0.5,0.74-1.12,0.94-1.87s0.32-1.62,0.34-2.62v-0.65c0-1.07-0.09-2.03-0.26-2.86
		s-0.48-1.54-0.9-2.1c-0.43-0.57-0.99-1-1.7-1.29c-0.71-0.29-1.59-0.44-2.65-0.44c-1.77,0-3.07,0.58-3.9,1.74
		c-0.83,1.16-1.25,2.82-1.25,4.99c0,2.22,0.42,3.88,1.25,4.97C247.81,150.9,249.12,151.45,250.91,151.45z"/>
</g>
<g>
	<rect x="153.07" y="127.04" class="st2" width="3" height="33.83"/>
</g>
<g>
	<rect x="278.07" y="127.04" class="st2" width="3" height="33.83"/>
</g>
</svg>
